<mxfile host="app.diagrams.net" agent="Mozilla/5.0 (Windows NT 10.0; Win64; x64) AppleWebKit/537.36 (KHTML, like Gecko) Chrome/127.0.0.0 Safari/537.36" version="24.7.6">
  <diagram name="Page-1" id="4FSYOB0P4fJoKlV8qEVA">
    <mxGraphModel dx="1050" dy="557" grid="1" gridSize="10" guides="1" tooltips="1" connect="1" arrows="1" fold="1" page="1" pageScale="1" pageWidth="850" pageHeight="1100" math="0" shadow="0">
      <root>
        <mxCell id="0" />
        <mxCell id="1" parent="0" />
        <mxCell id="pqHmcFxmK-d73JVILgF8-1" value="" style="rounded=0;whiteSpace=wrap;html=1;strokeColor=#FFFFFF;" vertex="1" parent="1">
          <mxGeometry x="40" y="310" width="620" height="420" as="geometry" />
        </mxCell>
        <mxCell id="pqHmcFxmK-d73JVILgF8-2" value="&lt;span style=&quot;font-size: 14px;&quot;&gt;&lt;b&gt;S : System&lt;/b&gt;&lt;/span&gt;" style="shape=umlLifeline;perimeter=lifelinePerimeter;whiteSpace=wrap;html=1;container=1;dropTarget=0;collapsible=0;recursiveResize=0;outlineConnect=0;portConstraint=eastwest;newEdgeStyle={&quot;curved&quot;:0,&quot;rounded&quot;:0};strokeWidth=2;size=30;" vertex="1" parent="1">
          <mxGeometry x="50" y="320" width="100" height="380" as="geometry" />
        </mxCell>
        <mxCell id="pqHmcFxmK-d73JVILgF8-3" value="" style="html=1;points=[[0,0,0,0,5],[0,1,0,0,-5],[1,0,0,0,5],[1,1,0,0,-5]];perimeter=orthogonalPerimeter;outlineConnect=0;targetShapes=umlLifeline;portConstraint=eastwest;newEdgeStyle={&quot;curved&quot;:0,&quot;rounded&quot;:0};" vertex="1" parent="pqHmcFxmK-d73JVILgF8-2">
          <mxGeometry x="45" y="48" width="10" height="292" as="geometry" />
        </mxCell>
        <mxCell id="pqHmcFxmK-d73JVILgF8-4" value="&lt;span style=&quot;font-size: 14px;&quot;&gt;&lt;b&gt;A : Admin&lt;/b&gt;&lt;/span&gt;" style="shape=umlLifeline;perimeter=lifelinePerimeter;whiteSpace=wrap;html=1;container=1;dropTarget=0;collapsible=0;recursiveResize=0;outlineConnect=0;portConstraint=eastwest;newEdgeStyle={&quot;curved&quot;:0,&quot;rounded&quot;:0};strokeWidth=2;size=30;" vertex="1" parent="1">
          <mxGeometry x="310" y="320" width="100" height="380" as="geometry" />
        </mxCell>
        <mxCell id="pqHmcFxmK-d73JVILgF8-5" value="" style="html=1;points=[[0,0,0,0,5],[0,1,0,0,-5],[1,0,0,0,5],[1,1,0,0,-5]];perimeter=orthogonalPerimeter;outlineConnect=0;targetShapes=umlLifeline;portConstraint=eastwest;newEdgeStyle={&quot;curved&quot;:0,&quot;rounded&quot;:0};" vertex="1" parent="pqHmcFxmK-d73JVILgF8-4">
          <mxGeometry x="45" y="60" width="10" height="52" as="geometry" />
        </mxCell>
        <mxCell id="pqHmcFxmK-d73JVILgF8-6" value="" style="html=1;points=[[0,0,0,0,5],[0,1,0,0,-5],[1,0,0,0,5],[1,1,0,0,-5]];perimeter=orthogonalPerimeter;outlineConnect=0;targetShapes=umlLifeline;portConstraint=eastwest;newEdgeStyle={&quot;curved&quot;:0,&quot;rounded&quot;:0};" vertex="1" parent="pqHmcFxmK-d73JVILgF8-4">
          <mxGeometry x="45" y="212" width="10" height="118" as="geometry" />
        </mxCell>
        <mxCell id="pqHmcFxmK-d73JVILgF8-7" value="&lt;span style=&quot;font-size: 14px;&quot;&gt;&lt;b&gt;M : Member&lt;/b&gt;&lt;/span&gt;" style="shape=umlLifeline;perimeter=lifelinePerimeter;whiteSpace=wrap;html=1;container=1;dropTarget=0;collapsible=0;recursiveResize=0;outlineConnect=0;portConstraint=eastwest;newEdgeStyle={&quot;curved&quot;:0,&quot;rounded&quot;:0};strokeWidth=2;size=30;" vertex="1" parent="1">
          <mxGeometry x="549" y="320" width="100" height="380" as="geometry" />
        </mxCell>
        <mxCell id="pqHmcFxmK-d73JVILgF8-8" value="" style="html=1;points=[[0,0,0,0,5],[0,1,0,0,-5],[1,0,0,0,5],[1,1,0,0,-5]];perimeter=orthogonalPerimeter;outlineConnect=0;targetShapes=umlLifeline;portConstraint=eastwest;newEdgeStyle={&quot;curved&quot;:0,&quot;rounded&quot;:0};" vertex="1" parent="pqHmcFxmK-d73JVILgF8-7">
          <mxGeometry x="45" y="300" width="10" height="30" as="geometry" />
        </mxCell>
        <mxCell id="pqHmcFxmK-d73JVILgF8-9" value="" style="html=1;points=[[0,0,0,0,5],[0,1,0,0,-5],[1,0,0,0,5],[1,1,0,0,-5]];perimeter=orthogonalPerimeter;outlineConnect=0;targetShapes=umlLifeline;portConstraint=eastwest;newEdgeStyle={&quot;curved&quot;:0,&quot;rounded&quot;:0};" vertex="1" parent="pqHmcFxmK-d73JVILgF8-7">
          <mxGeometry x="45" y="59" width="10" height="60" as="geometry" />
        </mxCell>
        <mxCell id="pqHmcFxmK-d73JVILgF8-10" value="" style="endArrow=classic;html=1;rounded=0;" edge="1" parent="1">
          <mxGeometry width="50" height="50" relative="1" as="geometry">
            <mxPoint x="353.75" y="380" as="sourcePoint" />
            <mxPoint x="103.75" y="380" as="targetPoint" />
          </mxGeometry>
        </mxCell>
        <mxCell id="pqHmcFxmK-d73JVILgF8-11" value="&lt;font style=&quot;font-size: 14px;&quot;&gt;&lt;b&gt;2. Validate Adm&lt;/b&gt;&lt;span style=&quot;color: rgba(0, 0, 0, 0); font-family: monospace; font-size: 0px; text-align: start; text-wrap: nowrap;&quot;&gt;%3CmxGraphModel%3E%3Croot%3E%3CmxCell%20id%3D%220%22%2F%3E%3CmxCell%20id%3D%221%22%20parent%3D%220%22%2F%3E%3CmxCell%20id%3D%222%22%20value%3D%22%26lt%3Bfont%20style%3D%26quot%3Bfont-size%3A%2014px%3B%26quot%3B%26gt%3B%26lt%3Bb%26gt%3B2.%20Responce%20for%20Validation%26lt%3B%2Fb%26gt%3B%26lt%3B%2Ffont%26gt%3B%22%20style%3D%22html%3D1%3BverticalAlign%3Dbottom%3BendArrow%3Dopen%3Bdashed%3D1%3BendSize%3D8%3Bcurved%3D0%3Brounded%3D0%3B%22%20edge%3D%221%22%20parent%3D%221%22%3E%3CmxGeometry%20relative%3D%221%22%20as%3D%22geometry%22%3E%3CmxPoint%20x%3D%22105%22%20y%3D%22420%22%20as%3D%22sourcePoint%22%2F%3E%3CmxPoint%20x%3D%22355%22%20y%3D%22420%22%20as%3D%22targetPoint%22%2F%3E%3C%2FmxGeometry%3E%3C%2FmxCell%3E%3C%2Froot%3E%3C%2FmxGraphModel%3E&lt;/span&gt;&lt;b&gt;in&lt;/b&gt;&lt;/font&gt;" style="text;html=1;align=center;verticalAlign=middle;whiteSpace=wrap;rounded=0;" vertex="1" parent="1">
          <mxGeometry x="136" y="361" width="130" height="20" as="geometry" />
        </mxCell>
        <mxCell id="pqHmcFxmK-d73JVILgF8-12" value="&lt;font style=&quot;font-size: 14px;&quot;&gt;&lt;b&gt;3. Responce for Validation&lt;/b&gt;&lt;/font&gt;" style="html=1;verticalAlign=bottom;endArrow=open;dashed=1;endSize=8;curved=0;rounded=0;" edge="1" parent="1">
          <mxGeometry relative="1" as="geometry">
            <mxPoint x="105" y="430" as="sourcePoint" />
            <mxPoint x="355" y="430" as="targetPoint" />
          </mxGeometry>
        </mxCell>
        <mxCell id="pqHmcFxmK-d73JVILgF8-13" value="" style="html=1;points=[[0,0,0,0,5],[0,1,0,0,-5],[1,0,0,0,5],[1,1,0,0,-5]];perimeter=orthogonalPerimeter;outlineConnect=0;targetShapes=umlLifeline;portConstraint=eastwest;newEdgeStyle={&quot;curved&quot;:0,&quot;rounded&quot;:0};" vertex="1" parent="1">
          <mxGeometry x="355" y="458" width="10" height="42" as="geometry" />
        </mxCell>
        <mxCell id="pqHmcFxmK-d73JVILgF8-14" value="" style="endArrow=classic;html=1;rounded=0;" edge="1" parent="1">
          <mxGeometry width="50" height="50" relative="1" as="geometry">
            <mxPoint x="355" y="458" as="sourcePoint" />
            <mxPoint x="105" y="458" as="targetPoint" />
          </mxGeometry>
        </mxCell>
        <mxCell id="pqHmcFxmK-d73JVILgF8-15" value="&lt;span style=&quot;font-size: 14px;&quot;&gt;&lt;b&gt;4. Check Visitor Request&lt;/b&gt;&lt;/span&gt;" style="text;html=1;align=center;verticalAlign=middle;whiteSpace=wrap;rounded=0;" vertex="1" parent="1">
          <mxGeometry x="136" y="439" width="174" height="20" as="geometry" />
        </mxCell>
        <mxCell id="pqHmcFxmK-d73JVILgF8-16" value="" style="html=1;verticalAlign=bottom;endArrow=open;dashed=1;endSize=8;curved=0;rounded=0;" edge="1" parent="1">
          <mxGeometry relative="1" as="geometry">
            <mxPoint x="105" y="499" as="sourcePoint" />
            <mxPoint x="355" y="499" as="targetPoint" />
          </mxGeometry>
        </mxCell>
        <mxCell id="pqHmcFxmK-d73JVILgF8-17" value="&lt;span style=&quot;font-size: 14px;&quot;&gt;&lt;b&gt;5. Visitor Request Available&lt;/b&gt;&lt;/span&gt;" style="text;html=1;align=center;verticalAlign=middle;whiteSpace=wrap;rounded=0;" vertex="1" parent="1">
          <mxGeometry x="135" y="480" width="195" height="20" as="geometry" />
        </mxCell>
        <mxCell id="pqHmcFxmK-d73JVILgF8-18" value="" style="endArrow=classic;html=1;rounded=0;" edge="1" parent="1">
          <mxGeometry width="50" height="50" relative="1" as="geometry">
            <mxPoint x="355" y="532" as="sourcePoint" />
            <mxPoint x="105" y="532" as="targetPoint" />
          </mxGeometry>
        </mxCell>
        <mxCell id="pqHmcFxmK-d73JVILgF8-19" value="&lt;span style=&quot;font-size: 14px;&quot;&gt;&lt;b&gt;6. Verify Visitors&lt;/b&gt;&lt;/span&gt;" style="text;html=1;align=center;verticalAlign=middle;whiteSpace=wrap;rounded=0;" vertex="1" parent="1">
          <mxGeometry x="140" y="513" width="120" height="20" as="geometry" />
        </mxCell>
        <mxCell id="pqHmcFxmK-d73JVILgF8-20" value="" style="html=1;verticalAlign=bottom;endArrow=open;dashed=1;endSize=8;curved=0;rounded=0;" edge="1" parent="1">
          <mxGeometry relative="1" as="geometry">
            <mxPoint x="105" y="575" as="sourcePoint" />
            <mxPoint x="355" y="575" as="targetPoint" />
          </mxGeometry>
        </mxCell>
        <mxCell id="pqHmcFxmK-d73JVILgF8-21" value="&lt;span style=&quot;font-size: 14px;&quot;&gt;&lt;b&gt;7.Visitors Verified&lt;/b&gt;&lt;/span&gt;" style="text;html=1;align=center;verticalAlign=middle;whiteSpace=wrap;rounded=0;" vertex="1" parent="1">
          <mxGeometry x="137" y="556" width="137" height="20" as="geometry" />
        </mxCell>
        <mxCell id="pqHmcFxmK-d73JVILgF8-25" value="" style="html=1;verticalAlign=bottom;endArrow=open;dashed=1;endSize=8;curved=0;rounded=0;" edge="1" parent="1">
          <mxGeometry relative="1" as="geometry">
            <mxPoint x="105" y="611" as="sourcePoint" />
            <mxPoint x="355" y="611" as="targetPoint" />
          </mxGeometry>
        </mxCell>
        <mxCell id="pqHmcFxmK-d73JVILgF8-26" value="&lt;span style=&quot;font-size: 14px;&quot;&gt;&lt;b&gt;8. Visitors Details Logged&amp;nbsp;&lt;/b&gt;&lt;/span&gt;" style="text;html=1;align=left;verticalAlign=middle;whiteSpace=wrap;rounded=0;" vertex="1" parent="1">
          <mxGeometry x="143" y="591" width="187" height="20" as="geometry" />
        </mxCell>
        <mxCell id="pqHmcFxmK-d73JVILgF8-32" value="" style="edgeStyle=elbowEdgeStyle;fontSize=12;html=1;endArrow=blockThin;endFill=1;rounded=0;" edge="1" parent="1">
          <mxGeometry width="160" relative="1" as="geometry">
            <mxPoint x="365" y="632" as="sourcePoint" />
            <mxPoint x="594" y="631.5" as="targetPoint" />
          </mxGeometry>
        </mxCell>
        <mxCell id="pqHmcFxmK-d73JVILgF8-33" value="&lt;span style=&quot;font-size: 14px;&quot;&gt;&lt;b&gt;9. Allowed Entry to Visitors&lt;/b&gt;&lt;/span&gt;" style="text;html=1;align=center;verticalAlign=middle;whiteSpace=wrap;rounded=0;" vertex="1" parent="1">
          <mxGeometry x="384" y="613" width="189" height="20" as="geometry" />
        </mxCell>
        <mxCell id="pqHmcFxmK-d73JVILgF8-34" value="" style="endArrow=classic;html=1;rounded=0;" edge="1" parent="1" source="pqHmcFxmK-d73JVILgF8-9">
          <mxGeometry width="50" height="50" relative="1" as="geometry">
            <mxPoint x="590" y="410" as="sourcePoint" />
            <mxPoint x="365" y="410" as="targetPoint" />
          </mxGeometry>
        </mxCell>
        <mxCell id="pqHmcFxmK-d73JVILgF8-35" value="&lt;span style=&quot;font-size: 14px;&quot;&gt;&lt;b&gt;1. Request For Visitor&lt;/b&gt;&lt;/span&gt;" style="text;html=1;align=center;verticalAlign=middle;whiteSpace=wrap;rounded=0;" vertex="1" parent="1">
          <mxGeometry x="388" y="391" width="179" height="20" as="geometry" />
        </mxCell>
        <mxCell id="pqHmcFxmK-d73JVILgF8-36" value="" style="shape=umlDestroy;whiteSpace=wrap;html=1;strokeWidth=3;targetShapes=umlLifeline;" vertex="1" parent="1">
          <mxGeometry x="89" y="693" width="20" height="20" as="geometry" />
        </mxCell>
        <mxCell id="pqHmcFxmK-d73JVILgF8-37" value="" style="shape=umlDestroy;whiteSpace=wrap;html=1;strokeWidth=3;targetShapes=umlLifeline;" vertex="1" parent="1">
          <mxGeometry x="349" y="693" width="20" height="20" as="geometry" />
        </mxCell>
        <mxCell id="pqHmcFxmK-d73JVILgF8-38" value="" style="shape=umlDestroy;whiteSpace=wrap;html=1;strokeWidth=3;targetShapes=umlLifeline;" vertex="1" parent="1">
          <mxGeometry x="588" y="693" width="20" height="20" as="geometry" />
        </mxCell>
      </root>
    </mxGraphModel>
  </diagram>
</mxfile>
